<?xml version="1.0" encoding="UTF-8"?>
<svg width="14px" height="14px" viewBox="0 0 14 14" version="1.1" xmlns="http://www.w3.org/2000/svg" xmlns:xlink="http://www.w3.org/1999/xlink">
    <!-- Generator: Sketch 63.1 (92452) - https://sketch.com -->
    <title>w/icon/14_lock</title>
    <desc>Created with Sketch.</desc>
    <g id="w/icon/14_lock" stroke="none" stroke-width="1" fill="none" fill-rule="evenodd">
        <g id="Group-7" transform="translate(1.000000, 0.000000)">
            <path d="M10,4.5 L2,4.5 C1.58578644,4.5 1.21078644,4.66789322 0.939339828,4.93933983 C0.667893219,5.21078644 0.5,5.58578644 0.5,6 L0.5,12 C0.5,12.4142136 0.667893219,12.7892136 0.939339828,13.0606602 C1.21078644,13.3321068 1.58578644,13.5 2,13.5 L10,13.5 C10.4142136,13.5 10.7892136,13.3321068 11.0606602,13.0606602 C11.3321068,12.7892136 11.5,12.4142136 11.5,12 L11.5,6 C11.5,5.58578644 11.3321068,5.21078644 11.0606602,4.93933983 C10.7892136,4.66789322 10.4142136,4.5 10,4.5 Z" id="Rectangle-9" stroke="#666666"></path>
            <path d="M6,0 C7.65685425,-3.04359188e-16 9,1.34314575 9,3 L9,5 L3,5 L3,3 C3,1.34314575 4.34314575,3.04359188e-16 6,0 Z M6,1 C4.8954305,1 4,1.8954305 4,3 L4,3 L4,4 L8,4 L8,3 C8,1.8954305 7.1045695,1 6,1 Z" id="Combined-Shape" fill="#666666" fill-rule="nonzero"></path>
            <path d="M6,7 C6.27614237,7 6.5,7.22385763 6.5,7.5 L6.5,10.5 C6.5,10.7761424 6.27614237,11 6,11 C5.72385763,11 5.5,10.7761424 5.5,10.5 L5.5,7.5 C5.5,7.22385763 5.72385763,7 6,7 Z" id="Rectangle-2" fill="#666666"></path>
        </g>
    </g>
</svg>