<?xml version="1.0" encoding="UTF-8"?>
<svg width="18px" height="18px" viewBox="0 0 18 18" version="1.1" xmlns="http://www.w3.org/2000/svg" xmlns:xlink="http://www.w3.org/1999/xlink">
    <!-- Generator: Sketch 63.1 (92452) - https://sketch.com -->
    <title>w/icon/18_lock_on</title>
    <desc>Created with Sketch.</desc>
    <g id="w/icon/18_lock_on" stroke="none" stroke-width="1" fill="none" fill-rule="evenodd">
        <g id="ico/lock">
            <rect id="area" x="0" y="0" width="18" height="18"></rect>
            <g id="ico/btn/ico_btn_secreat_b" transform="translate(2.000000, 0.000000)" opacity="0.900000036">
                <g id="Group-7">
                    <path d="M12,6.5 L2,6.5 C1.58578644,6.5 1.21078644,6.66789322 0.939339828,6.93933983 C0.667893219,7.21078644 0.5,7.58578644 0.5,8 L0.5,16 C0.5,16.4142136 0.667893219,16.7892136 0.939339828,17.0606602 C1.21078644,17.3321068 1.58578644,17.5 2,17.5 L12,17.5 C12.4142136,17.5 12.7892136,17.3321068 13.0606602,17.0606602 C13.3321068,16.7892136 13.5,16.4142136 13.5,16 L13.5,8 C13.5,7.58578644 13.3321068,7.21078644 13.0606602,6.93933983 C12.7892136,6.66789322 12.4142136,6.5 12,6.5 Z" id="Rectangle-9" stroke="#FF5656"></path>
                    <path d="M7,0 C8.65685425,-3.04359188e-16 10,1.34314575 10,3 L10,7 L4,7 L4,3 C4,1.34314575 5.34314575,3.04359188e-16 7,0 Z M7,1 C5.8954305,1 5,1.8954305 5,3 L5,3 L5,6 L9,6 L9,3 C9,1.8954305 8.1045695,1 7,1 Z" id="Combined-Shape" fill="#FF5656" fill-rule="nonzero"></path>
                    <path d="M6.85,10 C7.31944204,10 7.7,10.380558 7.7,10.85 L7.7,13.15 C7.7,13.619442 7.31944204,14 6.85,14 C6.38055796,14 6,13.619442 6,13.15 L6,10.85 C6,10.380558 6.38055796,10 6.85,10 Z" id="Rectangle-2" fill="#FF5656"></path>
                </g>
            </g>
        </g>
    </g>
</svg>